<?xml version="1.0" encoding="UTF-8"?>
<svg id="Layer_2" data-name="Layer 2" xmlns="http://www.w3.org/2000/svg" viewBox="0 0 256 209.3">
  <g id="Layer_1-2" data-name="Layer 1">
    <g>
      <path d="M183.24,28.74c-7.93,7.84-13.1-10.75-16.04,6.82-3.9,23.31,4.69,48.23-9.08,69.39-6.2,9.52-19.51,16.54-29.92,20.58-4.38,1.7-24.84,7-26.27,9.9-3.51,7.13,8.99,4.12,12.1,3.23,12.48-3.58,23.7-13.16,36.67-15.87,25.63-5.35,49,9.54,68.26-16.35,8.3-11.15-4.95-29.08-.89-43.19,1.53-5.3,4.99-8.5,7.4-13.07,2.63-4.99,1.49-11.16,7.84-4.48,2.88,3.03,7.49,10.43,8,14.53.76,6.14-3.22,11.22-3.85,16.95-.14,1.23-.06,11.81,2.64,9.82,1.69-2.6,3.48-13.97,7.33-12.52,5.76,6.65,13.36,26.99,4.51,32.88-1.72,1.15-6.88,2.25-7.11,4.56-.19,1.92,6.22,6.49,6.88,12.26,1.72,15.02-10.76,35.95-26.95,22.86-6.31-5.1,2.67-12.74,1.71-19.44-.14-.96.36-1.18-1.04-1.03-2.39.43-11.08,11.84-14.32,14.34-11.32,8.73-31.35,4.26-45.03,5.47-34.25,3.02-47.69,30.95-85.63,14.65-7.21-3.1-12.9-8.75-14.84-16.55-5.2-20.93,18.04-32.57,34.47-37.49,11.49-3.44,31.82-4.59,40.41-12.13,10.71-9.39,4.9-25.08,5.46-37.53.48-10.68,3.33-21.36,4.63-31.93-.9-4.02-5.57-2.15-8.91-2.7-7.15-1.17-15.06-16.49-5.55-20.91,7.67-3.57,28.24-1,36.72,1.34,4.8,1.33,16.9,5.61,17.5,11.18.45,4.09-4.26,11.62-7.12,14.45Z"/>
      <path d="M108.97.53c4.98-.38,18.22.69,19.21,7,.26,1.68-.12,3.46.2,5.26,1.42,7.99,10.53,11.68,11.44,19.95.57,5.2-.59,9.48-3.13,13.94-4.17,7.34-12.03,8.89-4.73,17.81,6.49,7.92,14.86,7.69,9.55,21.14-3.26,8.24-14.55,14.2-19.58,4.58-1.74-3.33-3.57-21.91-7.68-20.95-.72.59-1.43,1.54-1.53,2.47-.44,4.17,1.75,11.66,1.88,16.26.13,4.94-.01,10.41-5.28,12.51-1.39.56-13.19,3.55-14.05,3.42-6.36-.91-1.31-9.75-.56-13.25,3.97-18.52,4.05-42.89-2.52-60.79-1.8-4.89-7.25-12.5-6.26-17.59,1.21-6.25,17.49-11.32,23.05-11.75ZM110.55,43.92c10.7.56,16-10.91,9.48-19.37-2.1-2.73-7.45-6.44-10.58-3.77-.99,1.68.1,22.3,1.1,23.14Z"/>
      <path d="M196.24,14.79c8.6-2.62,26.87,13.62,28.14,22.08.71,4.72-4.08,18.38-9.21,18.71-3.92.25-10.67-11.97-14.25-11.62-2.91.28-7.99,12.19-6.89,14.37,1.62,3.22,17.57,2.98,18.66,6.61.98,3.23-1.01,14.21-3.6,16.6-3.82,3.51-13-2.67-17.63-1.25-2.46.75-3.75,8.76-3.07,11,1.45,4.76,16.21,1.33,19.68,4.88,3.1,3.17-1.35,15.35-4.45,18.12-6.1,5.46-18.39,2.72-25.97,3.43-5.15-1.69-11.69.33-16.58-1.17-7.03-2.16.78-8.74,2.75-12.04,10.33-17.33,5.72-39.87,12.82-58.15,4.17-10.74,12.51-16.34,16.92-26.07.81-1.78.53-4.86,2.67-5.51Z"/>
      <path d="M64.58,13.45c23.07-3.94,27.75,34.73,28.15,50.68.34,13.78-2.61,49.4-20.81,50.82-19.38,1.52-26.28-29.57-27.62-44.01-1.39-14.94.86-54.17,20.29-57.49ZM66.61,40.02c-5.45,1.62-6.18,17.94-5.94,22.73.26,5.1,2.23,22.6,9.85,21.52,6.46-.91,6.22-20.87,5.83-25.6-.36-4.34-3.13-20.62-9.74-18.66Z"/>
      <path d="M174.62,184.57c-1.28,1.29,7.54,19.14,6.04,22.74-.95,2.88-12.48,2.18-14.86.75-2.59-1.55-3.68-5.99-5.21-8.44-8.53-13.64-15.67-18.05-25.57-29.02-3.49-3.87-6.93-7.16-.92-10.51,16.36-9.11,32.13-7.54,49.72-8.96,11.05-.9,22.2-4.46,33.24-1.84,2.27.54,16.7,6.18,17.28,7.3,1.56,3.06-3.14,8.3-5.12,10.6-13.92,16.2-33.61,23.64-54.6,17.39Z"/>
      <path d="M24.66,82.04l-1.95-12.16c-4.12-.87-6.09,8.21-6.4,11.31-.88,8.79,1.24,20.23,6.94,27.17,2.47,3.01,5.83,6.02,10.05,5.17,1.57-5.35-5.99-11.61-3.52-16.83,1.25-2.64,10.97-6.03,13.84-4.6,1.35.67,3.92,9.04,5.09,11.28,2.14,4.08,6.63,9.43,10.26,12.25,1.44,1.12,6.77,3.7,7.06,4.57,1.04,3.12-5.12,10.33-5.82,13.93-6.73,4.2-34.16-.84-41.41-4.95-13.42-7.6-24.05-37.55-16.04-51.3,1.66-2.85,7.2-6.58,7.94-9.13.61-2.11-.12-5.05.16-7.35,1.47-12.3,8.31-20.33,19.08-25.96,3.02-1.58,9.16-5.12,11.96-2.38,1.15,1.93-2.21,18.26-2.42,22.15-.42,7.5.65,14.94.58,22.41-.65,2.18-12.87,7.11-15.4,4.4Z"/>
    </g>
  </g>
</svg>